<svg width="12" height="22" viewBox="0 0 12 22" fill="none" xmlns="http://www.w3.org/2000/svg">
<path d="M10.9716 0.00450193L8.37677 0C5.46153 0 3.57758 2.09002 3.57758 5.32488V7.78001H0.968563C0.743114 7.78001 0.560547 7.97764 0.560547 8.22142V11.7786C0.560547 12.0224 0.743322 12.2198 0.968563 12.2198H3.57758V21.1957C3.57758 21.4395 3.76014 21.6369 3.98559 21.6369H7.38962C7.61507 21.6369 7.79763 21.4393 7.79763 21.1957V12.2198H10.8482C11.0736 12.2198 11.2562 12.0224 11.2562 11.7786L11.2574 8.22142C11.2574 8.10437 11.2144 7.99227 11.138 7.90944C11.0616 7.8266 10.9575 7.78001 10.8492 7.78001H7.79763V5.69876C7.79763 4.69844 8.01809 4.19062 9.22319 4.19062L10.9712 4.18994C11.1964 4.18994 11.379 3.99231 11.379 3.74875V0.445691C11.379 0.202362 11.1967 0.00495212 10.9716 0.00450193Z" fill="white"/>
</svg>
