<svg width="24" height="23" viewBox="0 0 24 23" fill="none" xmlns="http://www.w3.org/2000/svg">
<path d="M17.4087 0H7.17516C3.69991 0 0.872559 2.82748 0.872559 6.30274V16.5363C0.872559 20.0116 3.69991 22.839 7.17516 22.839H17.4087C20.8842 22.839 23.7115 20.0115 23.7115 16.5363V6.30274C23.7117 2.82748 20.8842 0 17.4087 0ZM21.6853 16.5363C21.6853 18.8943 19.7669 20.8126 17.4088 20.8126H7.17516C4.81726 20.8127 2.89894 18.8943 2.89894 16.5363V6.30274C2.89894 3.94483 4.81726 2.02639 7.17516 2.02639H17.4087C19.7667 2.02639 21.6852 3.94483 21.6852 6.30274V16.5363H21.6853Z" fill="white"/>
<path d="M12.2942 5.53726C9.04916 5.53726 6.40918 8.17724 6.40918 11.4223C6.40918 14.6672 9.04916 17.3071 12.2942 17.3071C15.5393 17.3071 18.1792 14.6672 18.1792 11.4223C18.1792 8.17724 15.5393 5.53726 12.2942 5.53726ZM12.2942 15.2805C10.1666 15.2805 8.43557 13.5497 8.43557 11.4222C8.43557 9.29445 10.1665 7.56351 12.2942 7.56351C14.4219 7.56351 16.1529 9.29445 16.1529 11.4222C16.1529 13.5497 14.4218 15.2805 12.2942 15.2805Z" fill="white"/>
<path d="M18.4225 3.81952C18.0321 3.81952 17.6486 3.97758 17.3729 4.25452C17.0958 4.53011 16.9365 4.91377 16.9365 5.30554C16.9365 5.69609 17.0959 6.07961 17.3729 6.35655C17.6485 6.63214 18.0321 6.79155 18.4225 6.79155C18.8143 6.79155 19.1966 6.63214 19.4736 6.35655C19.7505 6.07961 19.9086 5.69595 19.9086 5.30554C19.9086 4.91377 19.7505 4.53011 19.4736 4.25452C19.198 3.97758 18.8143 3.81952 18.4225 3.81952Z" fill="white"/>
</svg>
