<svg width="30" height="19" viewBox="0 0 30 19" fill="none" xmlns="http://www.w3.org/2000/svg">
<path d="M29.4077 16.2838C29.3727 16.2013 29.3402 16.1329 29.3099 16.0781C28.8094 15.0906 27.8529 13.8785 26.441 12.4414L26.4112 12.4085L26.3962 12.3924L26.3811 12.3758H26.366C25.7252 11.7067 25.3194 11.2567 25.1495 11.0264C24.8385 10.5876 24.7689 10.1434 24.9388 9.69338C25.0589 9.35335 25.5098 8.63526 26.2907 7.53813C26.7014 6.95668 27.0267 6.49068 27.2669 6.13958C28.9994 3.61647 29.7505 2.00417 29.5201 1.30205L29.4306 1.13797C29.3705 1.03919 29.2153 0.948824 28.9652 0.866411C28.7146 0.784171 28.3942 0.77057 28.0036 0.825378L23.6778 0.858112C23.6077 0.83091 23.5077 0.833446 23.3773 0.866411C23.2471 0.899376 23.182 0.915917 23.182 0.915917L23.1067 0.957123L23.0469 1.00663C22.9968 1.03936 22.9417 1.09694 22.8816 1.17924C22.8218 1.26125 22.7718 1.35749 22.7318 1.46716C22.2608 2.79447 21.7253 4.02854 21.1244 5.1693C20.7538 5.84952 20.4136 6.43904 20.1028 6.93818C19.7924 7.43716 19.5321 7.80479 19.3219 8.04045C19.1115 8.27633 18.9216 8.46531 18.751 8.60806C18.5807 8.75087 18.4507 8.81121 18.3607 8.78914C18.2705 8.76706 18.1855 8.74516 18.1051 8.72326C17.965 8.62448 17.8523 8.49014 17.7673 8.32013C17.682 8.15012 17.6245 7.93613 17.5945 7.67835C17.5646 7.42039 17.5469 7.19851 17.5419 7.01195C17.5372 6.82563 17.5394 6.56208 17.5495 6.22205C17.5599 5.88186 17.5646 5.65168 17.5646 5.53099C17.5646 5.11409 17.572 4.66162 17.5869 4.17348C17.6021 3.68534 17.6143 3.29858 17.6246 3.01365C17.6348 2.72843 17.6395 2.42667 17.6395 2.10854C17.6395 1.79042 17.6219 1.54093 17.5869 1.35985C17.5524 1.179 17.4994 1.00346 17.4296 0.833273C17.3594 0.66326 17.2566 0.531745 17.1217 0.438382C16.9865 0.345134 16.8185 0.271135 16.6185 0.216154C16.0877 0.0845814 15.4119 0.0134065 14.5906 0.00234121C12.7281 -0.0195588 11.5314 0.112187 11.0007 0.397405C10.7904 0.517913 10.6001 0.682566 10.4299 0.890847C10.2496 1.13227 10.2245 1.26401 10.3547 1.28568C10.9556 1.38429 11.381 1.62017 11.6313 1.99311L11.7216 2.19073C11.7918 2.33331 11.8618 2.58573 11.932 2.94766C12.002 3.30959 12.0472 3.70995 12.0671 4.14853C12.117 4.94943 12.117 5.63502 12.0671 6.20534C12.0169 6.77589 11.9696 7.22006 11.9244 7.53819C11.8792 7.85631 11.8116 8.1141 11.7216 8.31149C11.6313 8.50893 11.5713 8.62961 11.5412 8.67341C11.5112 8.71721 11.4861 8.74482 11.4663 8.75565C11.3361 8.81029 11.2007 8.83812 11.0606 8.83812C10.9203 8.83812 10.7502 8.76124 10.5499 8.6076C10.3498 8.45395 10.142 8.24291 9.92667 7.97411C9.71134 7.70526 9.46849 7.32956 9.19802 6.84695C8.92776 6.36435 8.64735 5.79397 8.35694 5.13582L8.11667 4.65851C7.96647 4.35145 7.76129 3.90434 7.50092 3.3176C7.2404 2.73062 7.01012 2.16283 6.80994 1.61435C6.72992 1.384 6.60971 1.20863 6.44951 1.08795L6.37433 1.03844C6.32435 0.994641 6.24412 0.948133 6.13406 0.898569C6.02384 0.849064 5.90883 0.813563 5.78857 0.79172L1.67293 0.824455C1.25236 0.824455 0.967006 0.928826 0.816751 1.13728L0.756618 1.23589C0.726578 1.29081 0.711426 1.37853 0.711426 1.49926C0.711426 1.61994 0.741466 1.76806 0.8016 1.94343C1.40241 3.49026 2.05577 4.98205 2.7617 6.41904C3.46762 7.85602 4.08105 9.01355 4.60163 9.89059C5.12231 10.7683 5.65304 11.5966 6.19382 12.3752C6.7346 13.1541 7.09256 13.6532 7.2677 13.8725C7.44305 14.0922 7.58078 14.2565 7.6809 14.3661L8.05649 14.761C8.29681 15.0243 8.64972 15.3397 9.11537 15.7071C9.58113 16.0747 10.0968 16.4366 10.6625 16.7934C11.2284 17.1496 11.8867 17.4403 12.6378 17.6651C13.3888 17.8902 14.1198 17.9805 14.8308 17.9369H16.5582C16.9086 17.9038 17.174 17.7831 17.3544 17.5748L17.4141 17.4924C17.4543 17.4269 17.492 17.3252 17.5267 17.1883C17.5618 17.0512 17.5793 16.9001 17.5793 16.7358C17.569 16.2642 17.6018 15.8392 17.6767 15.4608C17.7516 15.0825 17.8369 14.7973 17.9324 14.6052C18.0277 14.4133 18.1354 14.2513 18.2552 14.1201C18.3752 13.9885 18.4608 13.9088 18.511 13.8813C18.5608 13.8537 18.6007 13.835 18.6307 13.8238C18.871 13.7361 19.1539 13.821 19.4796 14.079C19.8051 14.3368 20.1104 14.6551 20.396 15.0334C20.6814 15.412 21.0243 15.8368 21.4248 16.3084C21.8255 16.7802 22.1759 17.1309 22.4762 17.3616L22.7765 17.559C22.977 17.6908 23.2374 17.8115 23.5579 17.9211C23.8778 18.0308 24.1581 18.0582 24.3988 18.0034L28.2439 17.9377C28.6243 17.9377 28.9202 17.8687 29.1301 17.7318C29.3404 17.5947 29.4654 17.4437 29.5057 17.2794C29.5459 17.1149 29.548 16.9283 29.5133 16.7196C29.4777 16.5115 29.4426 16.366 29.4077 16.2838Z" fill="white"/>
</svg>
