<svg width="23" height="23" viewBox="0 0 23 23" fill="none" xmlns="http://www.w3.org/2000/svg">
<path d="M7.11459 11.6517C8.02223 13.5073 9.52635 15.0046 11.3861 15.9037C11.5221 15.9682 11.6726 15.9961 11.8228 15.9848C11.9729 15.9734 12.1175 15.9232 12.2423 15.839L14.9806 14.013C15.1017 13.9323 15.241 13.883 15.386 13.8697C15.5309 13.8564 15.6769 13.8794 15.8107 13.9368L20.9335 16.1322C21.1075 16.2062 21.2528 16.3346 21.3475 16.4983C21.4421 16.662 21.481 16.852 21.4583 17.0397C21.2964 18.3067 20.6782 19.4712 19.7195 20.3153C18.7608 21.1593 17.5273 21.6249 16.25 21.625C12.3049 21.625 8.52139 20.0578 5.73179 17.2682C2.94218 14.4786 1.375 10.6951 1.375 6.75002C1.37507 5.47271 1.84071 4.23922 2.68475 3.28051C3.52878 2.32179 4.69332 1.70361 5.96033 1.54169C6.14803 1.51897 6.33803 1.55787 6.5017 1.65253C6.66538 1.74719 6.79385 1.89247 6.86778 2.06649L9.06518 7.19376C9.12201 7.32638 9.14517 7.471 9.13259 7.61474C9.12001 7.75848 9.07208 7.89687 8.99306 8.0176L7.17346 10.7979C7.09064 10.923 7.04168 11.0674 7.03137 11.217C7.02105 11.3667 7.04972 11.5164 7.11459 11.6517V11.6517Z" stroke="white" stroke-width="1.6" stroke-linecap="round" stroke-linejoin="round"/>
</svg>
